M48
METRIC,LZ,000.000
;FILE_FORMAT=3:3
;TYPE=PLATED
;Layer: PTH_Through
;EasyEDA v6.5.40, 2024-02-02 10:37:13
;a77a6519c85945819b4ef728552386b2,10
;Gerber Generator version 0.2
;Holesize 1 = 0.305 mm
T01C0.305
;Holesize 2 = 1.000 mm
T02C1.000
;Holesize 3 = 1.200 mm
T03C1.200
%
G05
G90
T01
X068381Y017617
X071502Y025029
X061849Y019304
T02
X049149Y026924
X051689Y026924
X054229Y026924
X056769Y026924
X059309Y026924
X061849Y026924
X064389Y026924
X066929Y026924
X069469Y026924
X072009Y026924
T03
X012954Y018034
X012954Y020574
X015494Y018034
X015494Y020574
X018034Y018034
X018034Y020574
X020574Y018034
X020574Y020574
X041327Y018034
X041327Y020574
X043867Y018034
X043867Y020574
X046407Y018034
X046407Y020574
X048947Y018034
X048947Y020574
X069827Y018034
X069827Y020574
X072367Y018034
X072367Y020574
X074907Y018034
X074907Y020574
X077447Y018034
X077447Y020574
X098327Y018034
X098327Y020574
X100867Y018034
X100867Y020574
X103407Y018034
X103407Y020574
X105947Y018034
X105947Y020574
M30
