G04 Layer: TopLayer*
G04 EasyEDA v6.5.40, 2024-02-02 10:37:13*
G04 a77a6519c85945819b4ef728552386b2,10*
G04 Gerber Generator version 0.2*
G04 Scale: 100 percent, Rotated: No, Reflected: No *
G04 Dimensions in millimeters *
G04 leading zeros omitted , absolute positions ,4 integer and 5 decimal *
%FSLAX45Y45*%
%MOMM*%

%ADD10C,0.2540*%
%ADD11C,1.5240*%
%ADD12R,1.8000X1.8000*%
%ADD13C,1.8000*%
%ADD14C,0.6096*%

%LPD*%
D10*
X7490688Y1930400D02*
G01*
X7490688Y2057400D01*
X10340695Y2057400D02*
G01*
X10213695Y1930400D01*
X7490688Y1930400D01*
X7490688Y1930400D02*
G01*
X6184900Y1930400D01*
X6184900Y1930400D02*
G01*
X4767706Y1930400D01*
X4640706Y2057400D01*
X1803400Y2057400D02*
G01*
X1921484Y1939315D01*
X4522622Y1939315D01*
X4640706Y2057400D01*
X9832695Y1803400D02*
G01*
X7744688Y1803400D01*
X1413357Y1803400D02*
G01*
X1413357Y1862378D01*
X1481378Y1930400D01*
X1858060Y1930400D01*
X1985060Y1803400D01*
X2057400Y1803400D01*
X1295400Y1803400D02*
G01*
X1413357Y1803400D01*
X6982688Y1803400D02*
G01*
X6965822Y1820265D01*
X4911572Y1820265D01*
X4894706Y1803400D01*
X4132706Y1803400D02*
G01*
X2057400Y1803400D01*
X5930900Y2692400D02*
G01*
X6120409Y2502890D01*
X7150227Y2502890D01*
X5676900Y2692400D02*
G01*
X5783783Y2799283D01*
X9852812Y2799283D01*
X10594695Y2057400D01*
X10086695Y1803400D02*
G01*
X9956368Y1673072D01*
X7367015Y1673072D01*
X7236688Y1803400D01*
X4386706Y1803400D02*
G01*
X4386706Y1685315D01*
X1549400Y1803400D02*
G01*
X1667484Y1685315D01*
X4386706Y1685315D01*
X6838111Y1685315D02*
G01*
X6838111Y1761718D01*
X4386706Y1685315D02*
G01*
X6838111Y1685315D01*
X6838111Y1685315D02*
G01*
X7118604Y1685315D01*
X7236688Y1803400D01*
X4132706Y2057400D02*
G01*
X4250791Y2175484D01*
X6864604Y2175484D01*
X6982688Y2057400D01*
X1295400Y2057400D02*
G01*
X1426514Y2188514D01*
X4001592Y2188514D01*
X4132706Y2057400D01*
X7208774Y2187625D02*
G01*
X7208774Y2684526D01*
X7200900Y2692400D01*
X9832695Y2057400D02*
G01*
X9702469Y2187625D01*
X7208774Y2187625D01*
X7208774Y2187625D02*
G01*
X7112914Y2187625D01*
X6982688Y2057400D01*
D11*
G01*
X4914900Y2692400D03*
G01*
X5168900Y2692400D03*
G01*
X5422900Y2692400D03*
G01*
X5676900Y2692400D03*
G01*
X5930900Y2692400D03*
G01*
X6184900Y2692400D03*
G01*
X6438900Y2692400D03*
G01*
X6692900Y2692400D03*
G01*
X6946900Y2692400D03*
G01*
X7200900Y2692400D03*
D12*
G01*
X1295400Y1803400D03*
D13*
G01*
X1295400Y2057400D03*
G01*
X1549400Y1803400D03*
G01*
X1549400Y2057400D03*
G01*
X1803400Y1803400D03*
G01*
X1803400Y2057400D03*
G01*
X2057400Y1803400D03*
G01*
X2057400Y2057400D03*
D12*
G01*
X4132694Y1803400D03*
D13*
G01*
X4132694Y2057400D03*
G01*
X4386694Y1803400D03*
G01*
X4386694Y2057400D03*
G01*
X4640694Y1803400D03*
G01*
X4640694Y2057400D03*
G01*
X4894694Y1803400D03*
G01*
X4894694Y2057400D03*
D12*
G01*
X6982688Y1803400D03*
D13*
G01*
X6982688Y2057400D03*
G01*
X7236688Y1803400D03*
G01*
X7236688Y2057400D03*
G01*
X7490688Y1803400D03*
G01*
X7490688Y2057400D03*
G01*
X7744688Y1803400D03*
G01*
X7744688Y2057400D03*
D12*
G01*
X9832682Y1803400D03*
D13*
G01*
X9832682Y2057400D03*
G01*
X10086682Y1803400D03*
G01*
X10086682Y2057400D03*
G01*
X10340682Y1803400D03*
G01*
X10340682Y2057400D03*
G01*
X10594682Y1803400D03*
G01*
X10594682Y2057400D03*
D14*
G01*
X6838111Y1761718D03*
G01*
X7150227Y2502890D03*
G01*
X6184900Y1930400D03*
M02*
