G04 Layer: BottomLayer*
G04 EasyEDA v6.5.40, 2024-02-02 10:37:13*
G04 a77a6519c85945819b4ef728552386b2,10*
G04 Gerber Generator version 0.2*
G04 Scale: 100 percent, Rotated: No, Reflected: No *
G04 Dimensions in millimeters *
G04 leading zeros omitted , absolute positions ,4 integer and 5 decimal *
%FSLAX45Y45*%
%MOMM*%

%ADD10C,0.2540*%
%ADD11C,1.5240*%
%ADD12R,1.8000X1.8000*%
%ADD13C,1.8000*%
%ADD14C,0.6096*%

%LPD*%
D10*
X2057400Y2057400D02*
G01*
X2692400Y2692400D01*
X4914900Y2692400D01*
X7744688Y2057400D02*
G01*
X7687005Y2057400D01*
X7568920Y1939315D01*
X7433233Y1939315D01*
X7354773Y2017776D01*
X7354773Y2381148D01*
X7073900Y2662021D01*
X7073900Y2733116D01*
X7008545Y2798470D01*
X6139764Y2798470D01*
X6057900Y2716606D01*
X6057900Y2652369D01*
X5989929Y2584399D01*
X5530900Y2584399D01*
X5422900Y2692400D01*
X6184900Y2692400D02*
G01*
X6184900Y1930400D01*
X4894706Y2057400D02*
G01*
X5168900Y2331593D01*
X5168900Y2692400D01*
X10594695Y1803400D02*
G01*
X10467695Y1930400D01*
X10018674Y1930400D01*
X9950653Y1862378D01*
X9950653Y1803400D01*
X9832695Y1803400D02*
G01*
X9950653Y1803400D01*
X7744688Y1803400D02*
G01*
X7613522Y1672234D01*
X7172833Y1672234D01*
X7100646Y1744421D01*
X7100646Y1803400D01*
X4894706Y1803400D02*
G01*
X4767706Y1930400D01*
X4318685Y1930400D01*
X4250664Y1862378D01*
X4250664Y1803400D01*
X4132706Y1803400D02*
G01*
X4250664Y1803400D01*
X6982688Y1803400D02*
G01*
X7093864Y1803400D01*
X7093864Y1803400D02*
G01*
X7100646Y1803400D01*
X6946900Y2692400D02*
G01*
X6946900Y2623413D01*
X7109586Y2460726D01*
X7109586Y1819122D01*
X7093864Y1803400D01*
X1549400Y2057400D02*
G01*
X1668322Y1938477D01*
X4267784Y1938477D01*
X4386706Y2057400D01*
X4386706Y2057400D02*
G01*
X4447743Y2057400D01*
X5041900Y2651556D01*
X5041900Y2724150D01*
X5114442Y2796692D01*
X5826607Y2796692D01*
X5930900Y2692400D01*
X5930900Y2692400D02*
G01*
X6091529Y2853029D01*
X9291065Y2853029D01*
X10086695Y2057400D01*
X7150227Y2502890D02*
G01*
X7236688Y2416429D01*
X7236688Y2057400D01*
X1803400Y1803400D02*
G01*
X1933752Y1673047D01*
X4510354Y1673047D01*
X4640706Y1803400D01*
X10340695Y1803400D02*
G01*
X10209072Y1671777D01*
X7942605Y1671777D01*
X7862773Y1751609D01*
X7862773Y1751609D02*
G01*
X7862773Y1863369D01*
X7795742Y1930400D01*
X7617688Y1930400D01*
X7490688Y1803400D01*
X4640706Y1803400D02*
G01*
X4766919Y1677187D01*
X6037961Y1677187D01*
X6438900Y2078126D01*
X6438900Y2692400D02*
G01*
X6438900Y2078126D01*
X6438900Y2078126D02*
G01*
X6899173Y1617853D01*
X7729016Y1617853D01*
X7862773Y1751609D01*
X6838111Y1761718D02*
G01*
X6692900Y1906930D01*
X6692900Y2692400D01*
D11*
G01*
X4914900Y2692400D03*
G01*
X5168900Y2692400D03*
G01*
X5422900Y2692400D03*
G01*
X5676900Y2692400D03*
G01*
X5930900Y2692400D03*
G01*
X6184900Y2692400D03*
G01*
X6438900Y2692400D03*
G01*
X6692900Y2692400D03*
G01*
X6946900Y2692400D03*
G01*
X7200900Y2692400D03*
D12*
G01*
X1295400Y1803400D03*
D13*
G01*
X1295400Y2057400D03*
G01*
X1549400Y1803400D03*
G01*
X1549400Y2057400D03*
G01*
X1803400Y1803400D03*
G01*
X1803400Y2057400D03*
G01*
X2057400Y1803400D03*
G01*
X2057400Y2057400D03*
D12*
G01*
X4132694Y1803400D03*
D13*
G01*
X4132694Y2057400D03*
G01*
X4386694Y1803400D03*
G01*
X4386694Y2057400D03*
G01*
X4640694Y1803400D03*
G01*
X4640694Y2057400D03*
G01*
X4894694Y1803400D03*
G01*
X4894694Y2057400D03*
D12*
G01*
X6982688Y1803400D03*
D13*
G01*
X6982688Y2057400D03*
G01*
X7236688Y1803400D03*
G01*
X7236688Y2057400D03*
G01*
X7490688Y1803400D03*
G01*
X7490688Y2057400D03*
G01*
X7744688Y1803400D03*
G01*
X7744688Y2057400D03*
D12*
G01*
X9832682Y1803400D03*
D13*
G01*
X9832682Y2057400D03*
G01*
X10086682Y1803400D03*
G01*
X10086682Y2057400D03*
G01*
X10340682Y1803400D03*
G01*
X10340682Y2057400D03*
G01*
X10594682Y1803400D03*
G01*
X10594682Y2057400D03*
D14*
G01*
X6838111Y1761718D03*
G01*
X7150227Y2502890D03*
G01*
X6184900Y1930400D03*
M02*
