G04 Layer: TopSolderMaskLayer*
G04 EasyEDA v6.5.40, 2024-02-02 10:37:13*
G04 a77a6519c85945819b4ef728552386b2,10*
G04 Gerber Generator version 0.2*
G04 Scale: 100 percent, Rotated: No, Reflected: No *
G04 Dimensions in millimeters *
G04 leading zeros omitted , absolute positions ,4 integer and 5 decimal *
%FSLAX45Y45*%
%MOMM*%

%AMMACRO1*1,1,$1,$2,$3*1,1,$1,$4,$5*1,1,$1,0-$2,0-$3*1,1,$1,0-$4,0-$5*20,1,$1,$2,$3,$4,$5,0*20,1,$1,$4,$5,0-$2,0-$3,0*20,1,$1,0-$2,0-$3,0-$4,0-$5,0*20,1,$1,0-$4,0-$5,$2,$3,0*4,1,4,$2,$3,$4,$5,0-$2,0-$3,0-$4,0-$5,$2,$3,0*%
%ADD10C,1.7272*%
%ADD11MACRO1,0.1016X-0.9X0.9X0.9X0.9*%
%ADD12C,1.9016*%

%LPD*%
D10*
G01*
X4914900Y2692400D03*
G01*
X5168900Y2692400D03*
G01*
X5422900Y2692400D03*
G01*
X5676900Y2692400D03*
G01*
X5930900Y2692400D03*
G01*
X6184900Y2692400D03*
G01*
X6438900Y2692400D03*
G01*
X6692900Y2692400D03*
G01*
X6946900Y2692400D03*
G01*
X7200900Y2692400D03*
D11*
G01*
X1295400Y1803400D03*
D12*
G01*
X1295400Y2057400D03*
G01*
X1549400Y1803400D03*
G01*
X1549400Y2057400D03*
G01*
X1803400Y1803400D03*
G01*
X1803400Y2057400D03*
G01*
X2057400Y1803400D03*
G01*
X2057400Y2057400D03*
D11*
G01*
X4132694Y1803400D03*
D12*
G01*
X4132694Y2057400D03*
G01*
X4386694Y1803400D03*
G01*
X4386694Y2057400D03*
G01*
X4640694Y1803400D03*
G01*
X4640694Y2057400D03*
G01*
X4894694Y1803400D03*
G01*
X4894694Y2057400D03*
D11*
G01*
X6982688Y1803400D03*
D12*
G01*
X6982688Y2057400D03*
G01*
X7236688Y1803400D03*
G01*
X7236688Y2057400D03*
G01*
X7490688Y1803400D03*
G01*
X7490688Y2057400D03*
G01*
X7744688Y1803400D03*
G01*
X7744688Y2057400D03*
D11*
G01*
X9832682Y1803400D03*
D12*
G01*
X9832682Y2057400D03*
G01*
X10086682Y1803400D03*
G01*
X10086682Y2057400D03*
G01*
X10340682Y1803400D03*
G01*
X10340682Y2057400D03*
G01*
X10594682Y1803400D03*
G01*
X10594682Y2057400D03*
M02*
