G04 Layer: TopSilkscreenLayer*
G04 EasyEDA v6.5.40, 2024-02-02 10:37:13*
G04 a77a6519c85945819b4ef728552386b2,10*
G04 Gerber Generator version 0.2*
G04 Scale: 100 percent, Rotated: No, Reflected: No *
G04 Dimensions in millimeters *
G04 leading zeros omitted , absolute positions ,4 integer and 5 decimal *
%FSLAX45Y45*%
%MOMM*%

%ADD10C,0.2032*%
%ADD11C,0.1524*%
%ADD12C,0.2540*%

%LPD*%
D10*
X322071Y2808478D02*
G01*
X303529Y2799334D01*
X285242Y2780792D01*
X275844Y2762250D01*
X266700Y2734563D01*
X266700Y2688589D01*
X275844Y2660650D01*
X285242Y2642362D01*
X303529Y2623820D01*
X322071Y2614676D01*
X359155Y2614676D01*
X377444Y2623820D01*
X395986Y2642362D01*
X405129Y2660650D01*
X414528Y2688589D01*
X414528Y2734563D01*
X405129Y2762250D01*
X395986Y2780792D01*
X377444Y2799334D01*
X359155Y2808478D01*
X322071Y2808478D01*
X475487Y2808478D02*
G01*
X475487Y2614676D01*
X475487Y2808478D02*
G01*
X540004Y2808478D01*
X567689Y2799334D01*
X586231Y2780792D01*
X595629Y2762250D01*
X604773Y2734563D01*
X604773Y2688589D01*
X595629Y2660650D01*
X586231Y2642362D01*
X567689Y2623820D01*
X540004Y2614676D01*
X475487Y2614676D01*
X807973Y2808478D02*
G01*
X807973Y2614676D01*
X807973Y2808478D02*
G01*
X928115Y2808478D01*
X807973Y2716276D02*
G01*
X881887Y2716276D01*
X807973Y2614676D02*
G01*
X928115Y2614676D01*
X989076Y2808478D02*
G01*
X989076Y2614676D01*
X1050036Y2688589D02*
G01*
X1160779Y2688589D01*
X1160779Y2706878D01*
X1151636Y2725420D01*
X1142237Y2734563D01*
X1123950Y2743962D01*
X1096010Y2743962D01*
X1077721Y2734563D01*
X1059179Y2716276D01*
X1050036Y2688589D01*
X1050036Y2670047D01*
X1059179Y2642362D01*
X1077721Y2623820D01*
X1096010Y2614676D01*
X1123950Y2614676D01*
X1142237Y2623820D01*
X1160779Y2642362D01*
X1332484Y2716276D02*
G01*
X1314195Y2734563D01*
X1295654Y2743962D01*
X1267968Y2743962D01*
X1249426Y2734563D01*
X1230884Y2716276D01*
X1221739Y2688589D01*
X1221739Y2670047D01*
X1230884Y2642362D01*
X1249426Y2623820D01*
X1267968Y2614676D01*
X1295654Y2614676D01*
X1314195Y2623820D01*
X1332484Y2642362D01*
X1421129Y2808478D02*
G01*
X1421129Y2651505D01*
X1430528Y2623820D01*
X1449070Y2614676D01*
X1467357Y2614676D01*
X1393444Y2743962D02*
G01*
X1458213Y2743962D01*
X1528318Y2743962D02*
G01*
X1528318Y2614676D01*
X1528318Y2688589D02*
G01*
X1537715Y2716276D01*
X1556004Y2734563D01*
X1574545Y2743962D01*
X1602231Y2743962D01*
X1709420Y2743962D02*
G01*
X1690878Y2734563D01*
X1672589Y2716276D01*
X1663192Y2688589D01*
X1663192Y2670047D01*
X1672589Y2642362D01*
X1690878Y2623820D01*
X1709420Y2614676D01*
X1737105Y2614676D01*
X1755647Y2623820D01*
X1774189Y2642362D01*
X1783334Y2670047D01*
X1783334Y2688589D01*
X1774189Y2716276D01*
X1755647Y2734563D01*
X1737105Y2743962D01*
X1709420Y2743962D01*
X1844294Y2743962D02*
G01*
X1844294Y2614676D01*
X1844294Y2706878D02*
G01*
X1871979Y2734563D01*
X1890521Y2743962D01*
X1918207Y2743962D01*
X1936750Y2734563D01*
X1945894Y2706878D01*
X1945894Y2614676D01*
X2006854Y2808478D02*
G01*
X2015997Y2799334D01*
X2025395Y2808478D01*
X2015997Y2817876D01*
X2006854Y2808478D01*
X2015997Y2743962D02*
G01*
X2015997Y2614676D01*
X2197100Y2716276D02*
G01*
X2178558Y2734563D01*
X2160270Y2743962D01*
X2132329Y2743962D01*
X2114041Y2734563D01*
X2095500Y2716276D01*
X2086356Y2688589D01*
X2086356Y2670047D01*
X2095500Y2642362D01*
X2114041Y2623820D01*
X2132329Y2614676D01*
X2160270Y2614676D01*
X2178558Y2623820D01*
X2197100Y2642362D01*
X2359659Y2716276D02*
G01*
X2350515Y2734563D01*
X2322829Y2743962D01*
X2294890Y2743962D01*
X2267204Y2734563D01*
X2258059Y2716276D01*
X2267204Y2697734D01*
X2285745Y2688589D01*
X2331974Y2679192D01*
X2350515Y2670047D01*
X2359659Y2651505D01*
X2359659Y2642362D01*
X2350515Y2623820D01*
X2322829Y2614676D01*
X2294890Y2614676D01*
X2267204Y2623820D01*
X2258059Y2642362D01*
X2429763Y2725420D02*
G01*
X2420620Y2716276D01*
X2429763Y2706878D01*
X2439161Y2716276D01*
X2429763Y2725420D01*
X2429763Y2660650D02*
G01*
X2420620Y2651505D01*
X2429763Y2642362D01*
X2439161Y2651505D01*
X2429763Y2660650D01*
X2642361Y2808478D02*
G01*
X2642361Y2614676D01*
X2642361Y2808478D02*
G01*
X2762250Y2808478D01*
X2642361Y2716276D02*
G01*
X2716275Y2716276D01*
X2934208Y2743962D02*
G01*
X2934208Y2614676D01*
X2934208Y2716276D02*
G01*
X2915665Y2734563D01*
X2897124Y2743962D01*
X2869438Y2743962D01*
X2851150Y2734563D01*
X2832608Y2716276D01*
X2823209Y2688589D01*
X2823209Y2670047D01*
X2832608Y2642362D01*
X2851150Y2623820D01*
X2869438Y2614676D01*
X2897124Y2614676D01*
X2915665Y2623820D01*
X2934208Y2642362D01*
X2995168Y2808478D02*
G01*
X2995168Y2614676D01*
X3087370Y2743962D02*
G01*
X2995168Y2651505D01*
X3031997Y2688589D02*
G01*
X3096768Y2614676D01*
X3157727Y2688589D02*
G01*
X3268472Y2688589D01*
X3268472Y2706878D01*
X3259327Y2725420D01*
X3249929Y2734563D01*
X3231641Y2743962D01*
X3203956Y2743962D01*
X3185413Y2734563D01*
X3166872Y2716276D01*
X3157727Y2688589D01*
X3157727Y2670047D01*
X3166872Y2642362D01*
X3185413Y2623820D01*
X3203956Y2614676D01*
X3231641Y2614676D01*
X3249929Y2623820D01*
X3268472Y2642362D01*
X3471672Y2808478D02*
G01*
X3471672Y2614676D01*
X3471672Y2808478D02*
G01*
X3600958Y2614676D01*
X3600958Y2808478D02*
G01*
X3600958Y2614676D01*
X3661918Y2808478D02*
G01*
X3671315Y2799334D01*
X3680459Y2808478D01*
X3671315Y2817876D01*
X3661918Y2808478D01*
X3671315Y2743962D02*
G01*
X3671315Y2614676D01*
X3741420Y2743962D02*
G01*
X3843020Y2614676D01*
X3843020Y2743962D02*
G01*
X3741420Y2614676D01*
X3903979Y2808478D02*
G01*
X3913124Y2799334D01*
X3922522Y2808478D01*
X3913124Y2817876D01*
X3903979Y2808478D01*
X3913124Y2743962D02*
G01*
X3913124Y2614676D01*
X3983481Y2688589D02*
G01*
X4094225Y2688589D01*
X4094225Y2706878D01*
X4085081Y2725420D01*
X4075684Y2734563D01*
X4057395Y2743962D01*
X4029709Y2743962D01*
X4011168Y2734563D01*
X3992625Y2716276D01*
X3983481Y2688589D01*
X3983481Y2670047D01*
X3992625Y2642362D01*
X4011168Y2623820D01*
X4029709Y2614676D01*
X4057395Y2614676D01*
X4075684Y2623820D01*
X4094225Y2642362D01*
X1511300Y1462278D02*
G01*
X1511300Y1268476D01*
X1640586Y1462278D02*
G01*
X1640586Y1268476D01*
X1511300Y1370076D02*
G01*
X1640586Y1370076D01*
X1701545Y1397762D02*
G01*
X1803145Y1268476D01*
X1803145Y1397762D02*
G01*
X1701545Y1268476D01*
X4356018Y1397762D02*
G01*
X4457618Y1268476D01*
X4457618Y1397762D02*
G01*
X4356018Y1268476D01*
X4518578Y1462278D02*
G01*
X4518578Y1268476D01*
X4647864Y1462278D02*
G01*
X4647864Y1268476D01*
X4518578Y1370076D02*
G01*
X4647864Y1370076D01*
X7226386Y1462278D02*
G01*
X7226386Y1268476D01*
X7226386Y1462278D02*
G01*
X7300300Y1268476D01*
X7373960Y1462278D02*
G01*
X7300300Y1268476D01*
X7373960Y1462278D02*
G01*
X7373960Y1268476D01*
X7434920Y1397762D02*
G01*
X7536520Y1268476D01*
X7536520Y1397762D02*
G01*
X7434920Y1268476D01*
X10071100Y1397762D02*
G01*
X10172700Y1268476D01*
X10172700Y1397762D02*
G01*
X10071100Y1268476D01*
X10233659Y1462278D02*
G01*
X10233659Y1268476D01*
X10233659Y1462278D02*
G01*
X10307574Y1268476D01*
X10381488Y1462278D02*
G01*
X10307574Y1268476D01*
X10381488Y1462278D02*
G01*
X10381488Y1268476D01*
X9842500Y2795778D02*
G01*
X9851643Y2786634D01*
X9861041Y2795778D01*
X9851643Y2805176D01*
X9842500Y2795778D01*
X9851643Y2731262D02*
G01*
X9851643Y2601976D01*
X10023602Y2703576D02*
G01*
X10014204Y2721863D01*
X9986518Y2731262D01*
X9958831Y2731262D01*
X9931145Y2721863D01*
X9922002Y2703576D01*
X9931145Y2685034D01*
X9949688Y2675889D01*
X9995915Y2666492D01*
X10014204Y2657347D01*
X10023602Y2638805D01*
X10023602Y2629662D01*
X10014204Y2611120D01*
X9986518Y2601976D01*
X9958831Y2601976D01*
X9931145Y2611120D01*
X9922002Y2629662D01*
X10186161Y2703576D02*
G01*
X10176763Y2721863D01*
X10149077Y2731262D01*
X10121391Y2731262D01*
X10093706Y2721863D01*
X10084561Y2703576D01*
X10093706Y2685034D01*
X10112247Y2675889D01*
X10158475Y2666492D01*
X10176763Y2657347D01*
X10186161Y2638805D01*
X10186161Y2629662D01*
X10176763Y2611120D01*
X10149077Y2601976D01*
X10121391Y2601976D01*
X10093706Y2611120D01*
X10084561Y2629662D01*
X10256265Y2712720D02*
G01*
X10247122Y2703576D01*
X10256265Y2694178D01*
X10265409Y2703576D01*
X10256265Y2712720D01*
X10256265Y2647950D02*
G01*
X10247122Y2638805D01*
X10256265Y2629662D01*
X10265409Y2638805D01*
X10256265Y2647950D01*
X10335768Y2749550D02*
G01*
X10335768Y2758947D01*
X10344911Y2777489D01*
X10354309Y2786634D01*
X10372597Y2795778D01*
X10409681Y2795778D01*
X10427970Y2786634D01*
X10437368Y2777489D01*
X10446511Y2758947D01*
X10446511Y2740405D01*
X10437368Y2721863D01*
X10418825Y2694178D01*
X10326370Y2601976D01*
X10455909Y2601976D01*
X10572241Y2795778D02*
G01*
X10544556Y2786634D01*
X10526013Y2758947D01*
X10516870Y2712720D01*
X10516870Y2685034D01*
X10526013Y2638805D01*
X10544556Y2611120D01*
X10572241Y2601976D01*
X10590529Y2601976D01*
X10618470Y2611120D01*
X10636758Y2638805D01*
X10646156Y2685034D01*
X10646156Y2712720D01*
X10636758Y2758947D01*
X10618470Y2786634D01*
X10590529Y2795778D01*
X10572241Y2795778D01*
X10716259Y2749550D02*
G01*
X10716259Y2758947D01*
X10725404Y2777489D01*
X10734802Y2786634D01*
X10753090Y2795778D01*
X10790174Y2795778D01*
X10808715Y2786634D01*
X10817859Y2777489D01*
X10827004Y2758947D01*
X10827004Y2740405D01*
X10817859Y2721863D01*
X10799318Y2694178D01*
X10707115Y2601976D01*
X10836402Y2601976D01*
X10989563Y2795778D02*
G01*
X10897361Y2666492D01*
X11035791Y2666492D01*
X10989563Y2795778D02*
G01*
X10989563Y2601976D01*
X11152124Y2795778D02*
G01*
X11124438Y2786634D01*
X11106150Y2758947D01*
X11096752Y2712720D01*
X11096752Y2685034D01*
X11106150Y2638805D01*
X11124438Y2611120D01*
X11152124Y2601976D01*
X11170665Y2601976D01*
X11198352Y2611120D01*
X11216893Y2638805D01*
X11226038Y2685034D01*
X11226038Y2712720D01*
X11216893Y2758947D01*
X11198352Y2786634D01*
X11170665Y2795778D01*
X11152124Y2795778D01*
X11296395Y2749550D02*
G01*
X11296395Y2758947D01*
X11305540Y2777489D01*
X11314684Y2786634D01*
X11333225Y2795778D01*
X11370309Y2795778D01*
X11388597Y2786634D01*
X11397995Y2777489D01*
X11407140Y2758947D01*
X11407140Y2740405D01*
X11397995Y2721863D01*
X11379454Y2694178D01*
X11286997Y2601976D01*
X11416284Y2601976D01*
X11532870Y2795778D02*
G01*
X11504929Y2786634D01*
X11486641Y2758947D01*
X11477243Y2712720D01*
X11477243Y2685034D01*
X11486641Y2638805D01*
X11504929Y2611120D01*
X11532870Y2601976D01*
X11551158Y2601976D01*
X11578843Y2611120D01*
X11597386Y2638805D01*
X11606529Y2685034D01*
X11606529Y2712720D01*
X11597386Y2758947D01*
X11578843Y2786634D01*
X11551158Y2795778D01*
X11532870Y2795778D01*
X11667490Y2758947D02*
G01*
X11686031Y2768092D01*
X11713718Y2795778D01*
X11713718Y2601976D01*
D11*
X4672584Y2692400D02*
G01*
X4781550Y2692400D01*
X4672584Y2765044D02*
G01*
X4781550Y2765044D01*
X4724400Y2692400D02*
G01*
X4724400Y2765044D01*
X4693411Y2799334D02*
G01*
X4688077Y2809747D01*
X4672584Y2825495D01*
X4781550Y2825495D01*
X1651000Y2325115D02*
G01*
X1651000Y2216150D01*
X1723644Y2325115D02*
G01*
X1723644Y2216150D01*
X1651000Y2273300D02*
G01*
X1723644Y2273300D01*
X1810004Y2325115D02*
G01*
X1757934Y2252471D01*
X1835912Y2252471D01*
X1810004Y2325115D02*
G01*
X1810004Y2216150D01*
X4488294Y2325115D02*
G01*
X4488294Y2216150D01*
X4560938Y2325115D02*
G01*
X4560938Y2216150D01*
X4488294Y2273300D02*
G01*
X4560938Y2273300D01*
X4657712Y2325115D02*
G01*
X4605642Y2325115D01*
X4600562Y2278379D01*
X4605642Y2283460D01*
X4621390Y2288794D01*
X4636884Y2288794D01*
X4652378Y2283460D01*
X4662792Y2273300D01*
X4668126Y2257552D01*
X4668126Y2247137D01*
X4662792Y2231644D01*
X4652378Y2221229D01*
X4636884Y2216150D01*
X4621390Y2216150D01*
X4605642Y2221229D01*
X4600562Y2226310D01*
X4595228Y2236723D01*
X7338288Y2325115D02*
G01*
X7338288Y2216150D01*
X7410932Y2325115D02*
G01*
X7410932Y2216150D01*
X7338288Y2273300D02*
G01*
X7410932Y2273300D01*
X7507706Y2309621D02*
G01*
X7502372Y2320036D01*
X7486878Y2325115D01*
X7476464Y2325115D01*
X7460970Y2320036D01*
X7450556Y2304287D01*
X7445222Y2278379D01*
X7445222Y2252471D01*
X7450556Y2231644D01*
X7460970Y2221229D01*
X7476464Y2216150D01*
X7481798Y2216150D01*
X7497292Y2221229D01*
X7507706Y2231644D01*
X7512786Y2247137D01*
X7512786Y2252471D01*
X7507706Y2267965D01*
X7497292Y2278379D01*
X7481798Y2283460D01*
X7476464Y2283460D01*
X7460970Y2278379D01*
X7450556Y2267965D01*
X7445222Y2252471D01*
X10188282Y2325115D02*
G01*
X10188282Y2216150D01*
X10260926Y2325115D02*
G01*
X10260926Y2216150D01*
X10188282Y2273300D02*
G01*
X10260926Y2273300D01*
X10368114Y2325115D02*
G01*
X10316044Y2216150D01*
X10295216Y2325115D02*
G01*
X10368114Y2325115D01*
D12*
X1168400Y2184400D02*
G01*
X2184400Y2184400D01*
X2184400Y1676400D01*
X1168400Y1676400D01*
X1168400Y2184400D01*
X4005694Y2184400D02*
G01*
X5021694Y2184400D01*
X5021694Y1676400D01*
X4005694Y1676400D01*
X4005694Y2184400D01*
X6855688Y2184400D02*
G01*
X7871688Y2184400D01*
X7871688Y1676400D01*
X6855688Y1676400D01*
X6855688Y2184400D01*
X9705682Y2184400D02*
G01*
X10721682Y2184400D01*
X10721682Y1676400D01*
X9705682Y1676400D01*
X9705682Y2184400D01*
M02*
