M48
METRIC,LZ,000.000
;FILE_FORMAT=3:3
;TYPE=PLATED
;Layer: PTH_Through
;EasyEDA v6.5.42, 2024-02-29 16:04:18
;a77a6519c85945819b4ef728552386b2,10
;Gerber Generator version 0.2
;Holesize 1 = 0.305 mm
T01C0.305
;Holesize 2 = 1.000 mm
T02C1.000
;Holesize 3 = 1.040 mm
T03C1.040
;Holesize 4 = 1.101 mm
T04C1.101
%
G05
G90
T01
X034910Y-005115
X050492Y047298
X020552Y-017174
X020359Y009450
X019134Y010675
X016133Y027905
X016945Y046225
X017341Y047821
X032002Y-014457
X052831Y039879
X041215Y006626
X048741Y-000226
X018796Y009305
X043453Y000613
X051249Y044001
X053622Y031468
T02
X010160Y047244
X010160Y049784
X010160Y052324
T03
X046352Y010795G85X046358Y010795
X046352Y013335G85X046358Y013335
X046352Y015875G85X046358Y015875
X046352Y018415G85X046358Y018415
X046352Y020955G85X046358Y020955
X046352Y023495G85X046358Y023495
X046352Y026035G85X046358Y026035
X046352Y028575G85X046358Y028575
X046352Y031115G85X046358Y031115
X046352Y033655G85X046358Y033655
X046352Y036195G85X046358Y036195
X046352Y038735G85X046358Y038735
X046352Y041275G85X046358Y041275
X046352Y043815G85X046358Y043815
X046352Y046355G85X046358Y046355
X046352Y048895G85X046358Y048895
X046352Y051435G85X046358Y051435
X046352Y053975G85X046358Y053975
X046352Y056515G85X046358Y056515
X020952Y013335G85X020958Y013335
X020952Y015875G85X020958Y015875
X020952Y018415G85X020958Y018415
X020952Y020955G85X020958Y020955
X020952Y023495G85X020958Y023495
X020952Y026035G85X020958Y026035
X020952Y028575G85X020958Y028575
X020952Y031115G85X020958Y031115
X020952Y033655G85X020958Y033655
X020952Y036195G85X020958Y036195
X020952Y038735G85X020958Y038735
X020952Y041275G85X020958Y041275
X020952Y043815G85X020958Y043815
X020952Y046355G85X020958Y046355
X020952Y048895G85X020958Y048895
X020952Y051435G85X020958Y051435
X020952Y010795G85X020958Y010795
X020952Y053975G85X020958Y053975
X020952Y056515G85X020958Y056515
T04
X039243Y-001651
X039243Y-004191
X039243Y-006731
X039243Y-009271
X039243Y-011811
X039243Y-014351
X039243Y-016891
X039243Y-019431
X039243Y-021971
X029464Y-001651
X029464Y-004191
X029464Y-006731
X029464Y-009271
X029464Y-011811
X029464Y-014351
X029464Y-016891
X029464Y-019431
X029464Y-021971
X049530Y-024384
X049530Y-021844
X049530Y-019304
X049530Y-016764
X049530Y-014224
X049530Y-011684
X049530Y-009144
X049530Y-006604
X049530Y-004064
X049530Y-001524
X018796Y-024384
X018796Y-021844
X018796Y-019304
X018796Y-016764
X018796Y-014224
X018796Y-011684
X018796Y-009144
X018796Y-006604
X018796Y-004064
X018796Y-001524
X010033Y-004191
X010033Y-001651
X010033Y000889
X010033Y003429
X010033Y005969
X010033Y008509
X010033Y011049
X010033Y013589
X010033Y016129
X010033Y018669
X010160Y-021717
X010160Y-019177
X010160Y-016637
X010160Y-014097
M30
