G04 Layer: BottomSolderMaskLayer*
G04 EasyEDA v6.5.42, 2024-02-29 16:04:18*
G04 a77a6519c85945819b4ef728552386b2,10*
G04 Gerber Generator version 0.2*
G04 Scale: 100 percent, Rotated: No, Reflected: No *
G04 Dimensions in millimeters *
G04 leading zeros omitted , absolute positions ,4 integer and 5 decimal *
%FSLAX45Y45*%
%MOMM*%

%AMMACRO1*1,1,$1,$2,$3*1,1,$1,$4,$5*1,1,$1,0-$2,0-$3*1,1,$1,0-$4,0-$5*20,1,$1,$2,$3,$4,$5,0*20,1,$1,$4,$5,0-$2,0-$3,0*20,1,$1,0-$2,0-$3,0-$4,0-$5,0*20,1,$1,0-$4,0-$5,$2,$3,0*4,1,4,$2,$3,$4,$5,0-$2,0-$3,0-$4,0-$5,$2,$3,0*%
%ADD10R,1.9016X1.9016*%
%ADD11C,1.9016*%
%ADD12C,1.9020*%
%ADD13MACRO1,0.1016X0.85X0.85X0.85X-0.85*%
%ADD14C,1.8016*%
%ADD15C,1.8020*%
%ADD16MACRO1,0.1016X0.85X0.7874X0.85X-0.7874*%
%ADD17C,1.6617*%
%ADD18MACRO1,0.1016X-0.78X0.78X0.78X0.78*%
%ADD19R,1.8016X1.8016*%

%LPD*%
D10*
G01*
X1016000Y4724400D03*
D11*
G01*
X1016000Y4978400D03*
D12*
G01*
X1015997Y5232389D03*
D13*
G01*
X3924300Y-165100D03*
D14*
G01*
X3924300Y-419100D03*
G01*
X3924300Y-673100D03*
D15*
G01*
X3924292Y-927097D03*
G01*
X3924292Y-1181097D03*
D14*
G01*
X3924300Y-1435100D03*
G01*
X3924300Y-1689100D03*
G01*
X3924300Y-1943100D03*
G01*
X3924300Y-2197100D03*
D13*
G01*
X2946400Y-165100D03*
D14*
G01*
X2946400Y-419100D03*
G01*
X2946400Y-673100D03*
G01*
X2946400Y-927100D03*
G01*
X2946400Y-1181100D03*
G01*
X2946400Y-1435100D03*
G01*
X2946400Y-1689100D03*
G01*
X2946400Y-1943100D03*
G01*
X2946400Y-2197100D03*
G01*
X4953000Y-2438400D03*
G01*
X4953000Y-2184400D03*
G01*
X4953000Y-1930400D03*
G01*
X4953000Y-1676400D03*
G01*
X4953000Y-1422400D03*
G01*
X4953000Y-1168400D03*
G01*
X4953000Y-914400D03*
G01*
X4953000Y-660400D03*
G01*
X4953000Y-406400D03*
D16*
G01*
X4953000Y-152400D03*
D14*
G01*
X1879600Y-2438400D03*
G01*
X1879600Y-2184400D03*
G01*
X1879600Y-1930400D03*
G01*
X1879600Y-1676400D03*
G01*
X1879600Y-1422400D03*
G01*
X1879600Y-1168400D03*
G01*
X1879600Y-914400D03*
G01*
X1879600Y-660400D03*
G01*
X1879600Y-406400D03*
D16*
G01*
X1879599Y-152400D03*
D17*
G01*
X4635500Y1079500D03*
G01*
X4635500Y1333500D03*
G01*
X4635500Y1587500D03*
G01*
X4635500Y1841500D03*
G01*
X4635500Y2095500D03*
G01*
X4635500Y2349500D03*
G01*
X4635500Y2603500D03*
G01*
X4635500Y2857500D03*
G01*
X4635500Y3111500D03*
G01*
X4635500Y3365500D03*
G01*
X4635500Y3619500D03*
G01*
X4635500Y3873500D03*
G01*
X4635500Y4127500D03*
G01*
X4635500Y4381500D03*
G01*
X4635500Y4635500D03*
G01*
X4635500Y4889500D03*
G01*
X4635500Y5143500D03*
G01*
X4635500Y5397500D03*
G01*
X4635500Y5651500D03*
G01*
X2095500Y1333500D03*
G01*
X2095500Y1587500D03*
G01*
X2095500Y1841500D03*
G01*
X2095500Y2095500D03*
G01*
X2095500Y2349500D03*
G01*
X2095500Y2603500D03*
G01*
X2095500Y2857500D03*
G01*
X2095500Y3111500D03*
G01*
X2095500Y3365500D03*
G01*
X2095500Y3619500D03*
G01*
X2095500Y3873500D03*
G01*
X2095500Y4127500D03*
G01*
X2095500Y4381500D03*
G01*
X2095500Y4635500D03*
G01*
X2095500Y4889500D03*
G01*
X2095500Y5143500D03*
G01*
X2095500Y1079500D03*
G01*
X2095500Y5397500D03*
D18*
G01*
X2095500Y5651500D03*
D14*
G01*
X1003300Y-419100D03*
G01*
X1003300Y-165100D03*
G01*
X1003300Y88900D03*
G01*
X1003300Y342900D03*
G01*
X1003300Y596900D03*
G01*
X1003300Y850900D03*
G01*
X1003300Y1104900D03*
G01*
X1003300Y1358900D03*
G01*
X1003300Y1612900D03*
D16*
G01*
X1003300Y1866900D03*
D19*
G01*
X1016000Y-2171700D03*
D14*
G01*
X1016000Y-1917700D03*
G01*
X1016000Y-1663700D03*
G01*
X1016000Y-1409700D03*
M02*
