G04 Layer: TopLayer*
G04 EasyEDA v6.5.42, 2024-02-29 16:04:18*
G04 a77a6519c85945819b4ef728552386b2,10*
G04 Gerber Generator version 0.2*
G04 Scale: 100 percent, Rotated: No, Reflected: No *
G04 Dimensions in millimeters *
G04 leading zeros omitted , absolute positions ,4 integer and 5 decimal *
%FSLAX45Y45*%
%MOMM*%

%ADD10C,0.2540*%
%ADD11R,1.8000X1.8000*%
%ADD12C,1.8000*%
%ADD13R,1.7000X1.7000*%
%ADD14C,1.7000*%
%ADD15R,1.7000X1.5748*%
%ADD16C,1.5601*%
%ADD17R,1.5601X1.5601*%
%ADD18C,0.6096*%

%LPD*%
D10*
X4635502Y4127500D02*
G01*
X4815563Y3947439D01*
X4815563Y-1538960D01*
X4953002Y-1676400D01*
X2095502Y3365500D02*
G01*
X1976376Y3246373D01*
X1976376Y883208D01*
X1996696Y862888D01*
X1996696Y-2321305D01*
X1879602Y-2438400D01*
X1879602Y-406400D02*
G01*
X1763219Y-290017D01*
X1763219Y2684576D01*
X1794182Y2715539D01*
X1794182Y5096179D01*
X2095502Y5397500D01*
X4953002Y-1930400D02*
G01*
X5362247Y-1521155D01*
X5362247Y3146755D01*
X2946402Y-2197100D02*
G01*
X2095502Y-1346200D01*
X2095502Y1079500D01*
X2095502Y1841500D02*
G01*
X2294816Y1642186D01*
X2294816Y-783513D01*
X2946402Y-1435100D01*
X2946402Y-1689100D02*
G01*
X2254023Y-996721D01*
X2254023Y1428978D01*
X2095502Y1587500D01*
X2095502Y1333500D02*
G01*
X2201572Y1227429D01*
X2201572Y-1198270D01*
X2946402Y-1943100D01*
X4953002Y-914400D02*
G01*
X5124858Y-742543D01*
X5124858Y4400143D01*
X4635502Y3365500D02*
G01*
X4774796Y3226206D01*
X4774796Y-2260193D01*
X4953002Y-2438400D01*
X4635502Y2349500D02*
G01*
X4283331Y1997329D01*
X4283331Y-568070D01*
X3924302Y-927100D01*
X3924302Y-1435100D02*
G01*
X4438957Y-920445D01*
X4438957Y1644954D01*
X4635502Y1841500D01*
X3924302Y-1689100D02*
G01*
X4479800Y-1133602D01*
X4479800Y1431797D01*
X4635502Y1587500D01*
X4635502Y1079500D02*
G01*
X4635502Y-1485900D01*
X3924302Y-2197100D01*
X4345256Y61290D02*
G01*
X4345256Y1805254D01*
X4635502Y2095500D01*
X3924302Y-1181100D02*
G01*
X4345256Y-760145D01*
X4345256Y61290D01*
X1879602Y930503D02*
G01*
X1879602Y-152400D01*
X1003302Y1612900D02*
G01*
X1440690Y2050287D01*
X1440690Y4996687D01*
X2095502Y5651500D01*
X2095502Y2857500D02*
G01*
X2805483Y2147519D01*
X2805483Y-278180D01*
X2946402Y-419100D01*
X2095502Y2349500D02*
G01*
X2588567Y1856435D01*
X2588567Y-569264D01*
X2946402Y-927100D01*
X2095502Y3111500D02*
G01*
X2946402Y2260600D01*
X2946402Y-165100D01*
X2095502Y2603500D02*
G01*
X2706728Y1992274D01*
X2706728Y-433425D01*
X2946402Y-673100D01*
X2095502Y2095500D02*
G01*
X2433474Y1757527D01*
X2433474Y-668172D01*
X2946402Y-1181100D01*
X4635502Y5397500D02*
G01*
X4874110Y5158892D01*
X4874110Y-22631D01*
X4635502Y5651500D02*
G01*
X4953002Y5334000D01*
X4953002Y-152400D01*
X3924302Y-165100D02*
G01*
X3924302Y2400300D01*
X4635502Y3111500D01*
X4635502Y2857500D02*
G01*
X4037408Y2259406D01*
X4037408Y-305993D01*
X3924302Y-419100D01*
X4121457Y662635D02*
G01*
X4121457Y-475945D01*
X3924302Y-673100D01*
X4635502Y2603500D02*
G01*
X4121457Y2089454D01*
X4121457Y662635D01*
X4635502Y1333500D02*
G01*
X4529432Y1227429D01*
X4529432Y-1337970D01*
X3924302Y-1943100D01*
X4953002Y-1168400D02*
G01*
X5283126Y-838276D01*
X5283126Y3987876D01*
X2095502Y3619500D02*
G01*
X3200199Y2514803D01*
X3200199Y-1445666D01*
X1879602Y-1168400D02*
G01*
X1640918Y-929716D01*
X1640918Y2735249D01*
X1671881Y2766212D01*
X1671881Y2882950D01*
X1628320Y2926511D01*
X1628320Y5104688D01*
X2030808Y5507177D01*
X2140435Y5507177D01*
X2204798Y5442813D01*
X2204798Y4744796D01*
X2095502Y4635500D01*
X1879602Y-660400D02*
G01*
X1722452Y-503250D01*
X1722452Y2701467D01*
X1753415Y2732430D01*
X1753415Y4762804D01*
X1734111Y4782108D01*
X1879602Y-914400D02*
G01*
X1681685Y-716483D01*
X1681685Y2718358D01*
X1712648Y2749321D01*
X1712648Y4604359D01*
X1694538Y4622469D01*
X1613334Y2790494D02*
G01*
X1587858Y2765018D01*
X1587858Y-1130655D01*
X1879602Y-1422400D01*
X2035939Y944981D02*
G01*
X2037488Y943432D01*
X2037488Y-1699615D01*
X2055243Y-1717370D01*
X2095502Y4127500D02*
G01*
X1913409Y3945407D01*
X1913409Y1067511D01*
X2095502Y3873500D02*
G01*
X1978306Y3756304D01*
X1978306Y3584778D01*
X2070585Y3492500D01*
X2133932Y3492500D01*
X3069668Y2556763D01*
X3069668Y-2238197D01*
X2749831Y-2558034D01*
X1836498Y-2558034D01*
X1763143Y-2484678D01*
X1763143Y-2046859D01*
X1879602Y-1930400D01*
X4953002Y-660400D02*
G01*
X5071264Y-542137D01*
X5071264Y3990314D01*
X5049217Y4012361D01*
X5049217Y4729784D01*
X3491003Y-511505D02*
G01*
X3491003Y3237001D01*
X4635502Y4381500D01*
D11*
G01*
X1016000Y4724400D03*
D12*
G01*
X1016000Y4978400D03*
G01*
X1015997Y5232389D03*
D13*
G01*
X3924300Y-165100D03*
D14*
G01*
X3924300Y-419100D03*
G01*
X3924300Y-673100D03*
G01*
X3924292Y-927097D03*
G01*
X3924292Y-1181097D03*
G01*
X3924300Y-1435100D03*
G01*
X3924300Y-1689100D03*
G01*
X3924300Y-1943100D03*
G01*
X3924300Y-2197100D03*
D13*
G01*
X2946400Y-165100D03*
D14*
G01*
X2946400Y-419100D03*
G01*
X2946400Y-673100D03*
G01*
X2946400Y-927100D03*
G01*
X2946400Y-1181100D03*
G01*
X2946400Y-1435100D03*
G01*
X2946400Y-1689100D03*
G01*
X2946400Y-1943100D03*
G01*
X2946400Y-2197100D03*
G01*
X4953000Y-2438400D03*
G01*
X4953000Y-2184400D03*
G01*
X4953000Y-1930400D03*
G01*
X4953000Y-1676400D03*
G01*
X4953000Y-1422400D03*
G01*
X4953000Y-1168400D03*
G01*
X4953000Y-914400D03*
G01*
X4953000Y-660400D03*
G01*
X4953000Y-406400D03*
D15*
G01*
X4953000Y-152400D03*
D14*
G01*
X1879600Y-2438400D03*
G01*
X1879600Y-2184400D03*
G01*
X1879600Y-1930400D03*
G01*
X1879600Y-1676400D03*
G01*
X1879600Y-1422400D03*
G01*
X1879600Y-1168400D03*
G01*
X1879600Y-914400D03*
G01*
X1879600Y-660400D03*
G01*
X1879600Y-406400D03*
D15*
G01*
X1879600Y-152400D03*
D16*
G01*
X4635500Y1079500D03*
G01*
X4635500Y1333500D03*
G01*
X4635500Y1587500D03*
G01*
X4635500Y1841500D03*
G01*
X4635500Y2095500D03*
G01*
X4635500Y2349500D03*
G01*
X4635500Y2603500D03*
G01*
X4635500Y2857500D03*
G01*
X4635500Y3111500D03*
G01*
X4635500Y3365500D03*
G01*
X4635500Y3619500D03*
G01*
X4635500Y3873500D03*
G01*
X4635500Y4127500D03*
G01*
X4635500Y4381500D03*
G01*
X4635500Y4635500D03*
G01*
X4635500Y4889500D03*
G01*
X4635500Y5143500D03*
G01*
X4635500Y5397500D03*
G01*
X4635500Y5651500D03*
G01*
X2095500Y1333500D03*
G01*
X2095500Y1587500D03*
G01*
X2095500Y1841500D03*
G01*
X2095500Y2095500D03*
G01*
X2095500Y2349500D03*
G01*
X2095500Y2603500D03*
G01*
X2095500Y2857500D03*
G01*
X2095500Y3111500D03*
G01*
X2095500Y3365500D03*
G01*
X2095500Y3619500D03*
G01*
X2095500Y3873500D03*
G01*
X2095500Y4127500D03*
G01*
X2095500Y4381500D03*
G01*
X2095500Y4635500D03*
G01*
X2095500Y4889500D03*
G01*
X2095500Y5143500D03*
G01*
X2095500Y1079500D03*
G01*
X2095500Y5397500D03*
D17*
G01*
X2095500Y5651500D03*
D14*
G01*
X1003300Y-419100D03*
G01*
X1003300Y-165100D03*
G01*
X1003300Y88900D03*
G01*
X1003300Y342900D03*
G01*
X1003300Y596900D03*
G01*
X1003300Y850900D03*
G01*
X1003300Y1104900D03*
G01*
X1003300Y1358900D03*
G01*
X1003300Y1612900D03*
D15*
G01*
X1003300Y1866900D03*
D13*
G01*
X1016000Y-2171700D03*
D14*
G01*
X1016000Y-1917700D03*
G01*
X1016000Y-1663700D03*
G01*
X1016000Y-1409700D03*
D18*
G01*
X3491003Y-511505D03*
G01*
X5049217Y4729784D03*
G01*
X2055243Y-1717370D03*
G01*
X2035939Y944981D03*
G01*
X1913409Y1067511D03*
G01*
X1613334Y2790494D03*
G01*
X1694538Y4622469D03*
G01*
X1734111Y4782108D03*
G01*
X3200199Y-1445666D03*
G01*
X5283126Y3987876D03*
G01*
X4121457Y662635D03*
G01*
X4874110Y-22631D03*
G01*
X1879602Y930503D03*
G01*
X4345256Y61290D03*
G01*
X5124858Y4400143D03*
G01*
X5362247Y3146755D03*
M02*
